<svg preserveAspectRatio="none" width="100%" height="100%" overflow="visible" style="display: block;" viewBox="0 0 24 24" fill="none" xmlns="http://www.w3.org/2000/svg">
<path id="Vector" d="M0.59476 23.2301C1.33263 23.968 2.47987 24.03 3.35027 23.3645C11.2042 17.5396 13.0889 17.52 20.4156 23.3519C21.266 24.018 22.4849 23.9674 23.2221 23.2302C23.9696 22.4827 24.01 21.2945 23.3643 20.4235C17.7374 12.9741 17.7264 11.366 23.3668 3.34802C23.9912 2.45712 23.9498 1.33027 23.2222 0.602694C22.4741 -0.14537 21.337 -0.19713 20.4462 0.447798C12.6229 6.28301 10.7382 6.30264 3.42183 0.481052C2.54053 -0.195346 1.35238 -0.154926 0.59471 0.602746C-0.142492 1.33995 -0.203399 2.50761 0.462814 3.39909C6.07949 10.8792 6.09049 12.4668 0.429579 20.4644C-0.184567 21.386 -0.122622 22.5127 0.59476 23.2301Z" fill="url(#paint0_linear_1_59653)" fill-opacity="0.32"/>
<defs>
<linearGradient id="paint0_linear_1_59653" x1="23.2223" y1="0.602839" x2="-11.0889" y2="34.914" gradientUnits="userSpaceOnUse">
<stop offset="0.313079" stop-color="white"/>
<stop offset="1" stop-color="white" stop-opacity="0"/>
</linearGradient>
</defs>
</svg>
